<svg xmlns="http://www.w3.org/2000/svg" viewBox="0 0 57.75 54.87"><defs><style>.cls-1{fill:#3176bb;}</style></defs><title>Information and Support data icon</title><g id="Layer_2" data-name="Layer 2"><g id="Layer_1-2" data-name="Layer 1"><path class="cls-1" d="M57.25,52h0l-7.81-7.81a13,13,0,0,0,.94-14.5A13.44,13.44,0,0,0,45.7,25a13,13,0,0,0-13.13,0,13.5,13.5,0,0,0-4.67,4.68,13,13,0,0,0,0,13.14,13.28,13.28,0,0,0,4.68,4.68,13,13,0,0,0,11,1,13.26,13.26,0,0,0,3.5-1.92l7.81,7.8h0A1.68,1.68,0,0,0,57.26,52h0ZM43,45.51a10.05,10.05,0,1,1,5.36-5.36A10.08,10.08,0,0,1,43,45.51Z"/><path class="cls-1" d="M21.39,33.62V15.28H6.11V33.62ZM9.17,18.33h9.16V30.55H9.17Z"/><rect class="cls-1" x="24.44" y="15.28" width="9.17" height="3.06"/><path class="cls-1" d="M24.44,24.44h4a14.57,14.57,0,0,1,5.16-3H24.44Z"/><path class="cls-1" d="M23.79,39.72a12.62,12.62,0,0,1-.43-3.06H3.06V12.22H45.83v9.06c.56.34,1.09.72,1.61,1.11a13.07,13.07,0,0,1,1.45,1.33V0H0V39.72ZM3.06,3.06H45.83v6.1H3.06Z"/></g></g></svg>