<?xml version="1.0" encoding="UTF-8" standalone="no"?>
<svg
   xmlns:dc="http://purl.org/dc/elements/1.1/"
   xmlns:cc="http://creativecommons.org/ns#"
   xmlns:rdf="http://www.w3.org/1999/02/22-rdf-syntax-ns#"
   xmlns:svg="http://www.w3.org/2000/svg"
   xmlns="http://www.w3.org/2000/svg"
   xmlns:sodipodi="http://sodipodi.sourceforge.net/DTD/sodipodi-0.dtd"
   xmlns:inkscape="http://www.inkscape.org/namespaces/inkscape"
   id="IT_Health"
   data-name="IT Health"
   viewBox="0 0 265.07 231.29"
   version="1.1"
   sodipodi:docname="it-health.svg"
   inkscape:version="0.92.1 r15371">
  <metadata
     id="metadata4523">
    <rdf:RDF>
      <cc:Work
         rdf:about="">
        <dc:format>image/svg+xml</dc:format>
        <dc:type
           rdf:resource="http://purl.org/dc/dcmitype/StillImage" />
      </cc:Work>
    </rdf:RDF>
  </metadata>
  <defs
     id="defs4521" />
  <sodipodi:namedview
     pagecolor="#ffffff"
     bordercolor="#666666"
     borderopacity="1"
     objecttolerance="10"
     gridtolerance="10"
     guidetolerance="10"
     inkscape:pageopacity="0"
     inkscape:pageshadow="2"
     inkscape:window-width="3000"
     inkscape:window-height="1875"
     id="namedview4519"
     showgrid="false"
     inkscape:zoom="1.0203641"
     inkscape:cx="-64.453508"
     inkscape:cy="115.645"
     inkscape:window-x="-13"
     inkscape:window-y="-13"
     inkscape:window-maximized="1"
     inkscape:current-layer="IT_Health" />
  <title
     id="title4510">it_health</title>
  <rect
     x="178.33"
     y="187.92"
     width="28.91"
     height="14.45"
     id="rect4512"
     style="fill:#3176bb;fill-opacity:1" />
  <path
     d="M301,62.72a14.61,14.61,0,0,0-3.1-4.57A15,15,0,0,0,293.28,55a14.11,14.11,0,0,0-5.65-1.12H172A14,14,0,0,0,166.34,55a14.91,14.91,0,0,0-4.58,3.11,14.61,14.61,0,0,0-3.1,4.57,13.94,13.94,0,0,0-1.13,5.65V83c.94-.45,1.9-.88,2.87-1.28A61.13,61.13,0,0,1,172,78.17v-9.8H287.63V270.75H172V244.88l-14.46,14.44v11.43a13.94,13.94,0,0,0,1.13,5.65,14.71,14.71,0,0,0,7.68,7.68A14,14,0,0,0,172,285.2H287.63a14.11,14.11,0,0,0,5.65-1.12A14.73,14.73,0,0,0,301,276.4a13.94,13.94,0,0,0,1.13-5.65V68.37A13.94,13.94,0,0,0,301,62.72Z"
     transform="translate(-37.02 -53.92)"
     id="path4514"
     style="fill:#3176bb;fill-opacity:1" />
  <path
     d="M70.31,177.16H66.55l68.89,68.89L192,189.48h17.41l-74,74L52.22,180.34a47.39,47.39,0,0,1-6-7.27,54.53,54.53,0,0,1-4.52-8.22H65.11l27.23-27.13,43.1,43L166.23,150l14.91,14.82H215.3A42.26,42.26,0,0,0,220,154.46a39.34,39.34,0,0,0-10-39.4,40,40,0,0,0-28.34-11.4,37.72,37.72,0,0,0-14.33,2.55,48.5,48.5,0,0,0-11.55,6.68,87,87,0,0,0-10.15,9.38q-4.86,5.25-10.15,10.64-5.19-5.2-10.1-10.49a92.06,92.06,0,0,0-10.25-9.53A51,51,0,0,0,103.45,106a35.87,35.87,0,0,0-14.19-2.69,38.77,38.77,0,0,0-15.54,3.13,40.06,40.06,0,0,0-21.26,21.26,38.77,38.77,0,0,0-3.13,15.54,43,43,0,0,0,1.06,9.33H37.79a31.84,31.84,0,0,1-.63-4.62c-.1-1.54-.14-3.07-.14-4.61a51.09,51.09,0,0,1,4.09-20.4,52.79,52.79,0,0,1,11.16-16.64A52.07,52.07,0,0,1,68.86,95,51.26,51.26,0,0,1,89.26,91a51.15,51.15,0,0,1,14.24,1.82,48.82,48.82,0,0,1,11.59,5.06,62.36,62.36,0,0,1,10.2,7.74q4.86,4.53,10.15,9.91,5.3-5.38,10.15-9.91a62.36,62.36,0,0,1,10.2-7.74,48.82,48.82,0,0,1,11.59-5.06A54.13,54.13,0,0,1,201.92,95a53,53,0,0,1,16.6,11.12,51.72,51.72,0,0,1,11.16,16.55,50.86,50.86,0,0,1,4.09,20.3,51.62,51.62,0,0,1-3.27,18.13,53.92,53.92,0,0,1-9.33,16H176l-9.72-9.81-30.79,30.89L92.34,155Z"
     id="path4516"
     transform="translate(-37.02 -53.92)"
     style="fill:#3176bb;fill-opacity:1" />
</svg>
