<svg xmlns="http://www.w3.org/2000/svg" viewBox="0 0 57.75 54.46"><defs><style>.cls-1{fill:#3176bb;}</style></defs><title>Learning on-demand icon</title><g id="Layer_2" data-name="Layer 2"><g id="Layer_1-2" data-name="Layer 1"><path class="cls-1" d="M19,43V39.42A8.93,8.93,0,0,1,18,38.36a11.53,11.53,0,0,1-1.36-2.09,22.9,22.9,0,0,1-1.07-2.37,22.1,22.1,0,0,1-.79-2.33c-.21-.74-.36-1.38-.49-1.94H19V27H13.82c-.1-.9-.19-1.8-.25-2.69s-.09-1.79-.09-2.71,0-1.82.09-2.71.15-1.79.25-2.69H29.27c.11.9.19,1.79.26,2.69s.08,1.79.08,2.71,0,1.79-.08,2.66h2.71c.06-.87.08-1.77.08-2.66s0-1.79-.08-2.71-.15-1.79-.26-2.69h7.64a17.59,17.59,0,0,1,.76,5.4,18.11,18.11,0,0,1-.19,2.66H42.9a21.59,21.59,0,0,0,.17-2.66,21.21,21.21,0,0,0-.77-5.72A21.55,21.55,0,0,0,32.38,2.94,22.56,22.56,0,0,0,27.22.77a21.6,21.6,0,0,0-11.45,0A23.12,23.12,0,0,0,10.67,3a21.27,21.27,0,0,0-7.73,7.72A20.7,20.7,0,0,0,.77,15.85a21.54,21.54,0,0,0,9.92,24.34,22.34,22.34,0,0,0,5.16,2.18A17.88,17.88,0,0,0,19,43ZM31.13,5.33a19.23,19.23,0,0,1,3,2.22,18.24,18.24,0,0,1,2.52,2.75,17.85,17.85,0,0,1,1.94,3.23h-7c-.17-.84-.36-1.69-.59-2.54s-.49-1.71-.81-2.54A26.47,26.47,0,0,0,29.08,6a20.65,20.65,0,0,0-1.37-2.24A16.71,16.71,0,0,1,31.13,5.33ZM16.62,6.87A11.19,11.19,0,0,1,18,4.78a7.08,7.08,0,0,1,1.65-1.49,3.51,3.51,0,0,1,3.86,0,7.13,7.13,0,0,1,1.66,1.49,11.24,11.24,0,0,1,1.37,2.09,25.16,25.16,0,0,1,1.06,2.37,24.18,24.18,0,0,1,.77,2.32c.22.75.37,1.39.49,1.94H14.29c.11-.55.28-1.19.49-1.94s.47-1.51.79-2.32A22.76,22.76,0,0,1,16.62,6.87ZM6.46,10.28A19.35,19.35,0,0,1,9,7.53a20.31,20.31,0,0,1,3-2.22,18,18,0,0,1,3.39-1.58A16.91,16.91,0,0,0,14,6a23.23,23.23,0,0,0-1.09,2.44,25.64,25.64,0,0,0-.81,2.53c-.22.86-.43,1.71-.6,2.54h-7a19.5,19.5,0,0,1,1.94-3.2ZM2.69,21.57a18.24,18.24,0,0,1,.79-5.4h7.63c-.1.9-.19,1.79-.25,2.69s-.09,1.79-.09,2.71,0,1.81.09,2.71.15,1.79.25,2.69H3.48A18.19,18.19,0,0,1,2.69,21.57ZM12,37.82a19.26,19.26,0,0,1-3-2.21,17.73,17.73,0,0,1-2.51-2.76,19,19,0,0,1-1.95-3.2h7c.17.84.37,1.69.6,2.54A25,25,0,0,0,13,34.73a24,24,0,0,0,1.09,2.43,19.1,19.1,0,0,0,1.36,2.24A14.68,14.68,0,0,1,12,37.82Z"/><path class="cls-1" d="M56.7,48.75a2,2,0,0,1,.43.62,4.21,4.21,0,0,1,.32.79,7.75,7.75,0,0,1,.21.83,5.76,5.76,0,0,1,.09.74,2.91,2.91,0,0,1-.21,1A3,3,0,0,1,56,54.25a2.36,2.36,0,0,1-1,.21H19.46a2.38,2.38,0,0,1-1-.21,3,3,0,0,1-1.49-1.49,2.4,2.4,0,0,1-.24-1,4.63,4.63,0,0,1,.07-.74c.06-.28.13-.56.21-.83a5,5,0,0,1,.32-.79,2.87,2.87,0,0,1,.43-.62l4.44-4.44V27.11H52.25v17.2ZM55,51.65c0-.09,0-.17,0-.26a2.23,2.23,0,0,0-.09-.32c0-.1-.06-.21-.11-.32a.68.68,0,0,0-.1-.21l-4.33-4.31H24.13L19.8,50.54a.57.57,0,0,0-.13.21,3,3,0,0,1-.11.32,2.14,2.14,0,0,0-.08.32,2.38,2.38,0,0,1-.05.26l.07.06H54.91ZM24.92,43.5H49.54V29.85H24.92Z"/></g></g></svg>