<svg xmlns="http://www.w3.org/2000/svg" class="x-hidden-focus" id="Titles" style="padding-top: .75em" viewBox="0 0 100 100">
  <defs>
    <!-- style element removed -->
  </defs>
  <title>pbi-PowerBILogo</title>
  <g id="Layer_2" data-name="Layer 2">
    <g id="Layer_1-2" data-name="Layer 1-2">
      <path class="cls-1" d="M 87.88 76.07 H 85.5 v -4 h 2.38 a 7.66 7.66 0 0 0 7.66 -7.66 V 23.87 A 7.84 7.84 0 0 0 87.88 16 H 12.62 A 8.25 8.25 0 0 0 4.5 23.87 V 64.45 c 0 4.23 3.89 7.66 8.12 7.66 H 15.5 v 4 H 12.62 C 6.2 76.08 0.54 70.87 0.54 64.45 V 23.87 A 12.25 12.25 0 0 1 12.62 12 H 87.88 A 11.85 11.85 0 0 1 99.5 23.87 V 64.45 A 11.63 11.63 0 0 1 87.88 76.07" />
      <path class="cls-1" d="M 25 86 a 5.54 5.54 0 0 1 -5.5 -5.57 V 67.58 A 5.54 5.54 0 0 1 25 62 h 0 a 5.54 5.54 0 0 1 5.5 5.57 V 80.42 A 5.54 5.54 0 0 1 25 86 Z" />
      <path class="cls-1" d="M 42 86 a 5.46 5.46 0 0 1 -5.5 -5.43 V 48.43 a 5.5 5.5 0 0 1 11 0 V 80.57 A 5.46 5.46 0 0 1 42 86 h 0" />
      <path class="cls-1" d="M 76 86 a 5.45 5.45 0 0 1 -5.5 -5.39 V 35.39 a 5.5 5.5 0 0 1 11 0 V 80.6 A 5.45 5.45 0 0 1 76 86 h 0" />
      <path class="cls-1" d="M 59 86 a 5.48 5.48 0 0 1 -5.5 -5.47 V 56.47 a 5.5 5.5 0 0 1 11 0 V 80.53 A 5.48 5.48 0 0 1 59 86" />
    </g>
  </g>
</svg>