<svg xmlns="http://www.w3.org/2000/svg" viewBox="0 0 45.96 49.03"><defs><style>.cls-1{fill:#3176bb;}</style></defs><title>Registration and Roles icon</title><g id="Layer_2" data-name="Layer 2"><g id="Layer_1-2" data-name="Layer 1"><polygon class="cls-1" points="6.36 22.85 31.11 22.85 27.81 25.91 6.36 25.91 6.36 22.85"/><polygon class="cls-1" points="6.36 38.2 16.38 38.2 15.55 41.26 6.36 41.26 6.36 38.2"/><path class="cls-1" d="M3.06,46H15.2L14.43,49H0V0H26.69L39.83,13.15v4.64a9,9,0,0,0-3.07,1.05V15.32H24.51V3.07H3.06ZM41.18,21.45a5,5,0,0,1,1.87.36,4.58,4.58,0,0,1,1.53,1,4.71,4.71,0,0,1,1,1.51A4.58,4.58,0,0,1,46,26.19,4.69,4.69,0,0,1,45.6,28a4.54,4.54,0,0,1-1,1.56L27.41,46.78l-9,2.25,2.25-9L37.8,22.82a4.45,4.45,0,0,1,1.55-1A5,5,0,0,1,41.18,21.45Zm1.21,6a1.64,1.64,0,0,0,.5-1.22A1.59,1.59,0,0,0,42.4,25a1.69,1.69,0,0,0-1.23-.46,1.81,1.81,0,0,0-.65.11A1.58,1.58,0,0,0,40,25L23.41,41.59l-.81,3.23L25.83,44ZM27.57,12.26h7l-7-7Z"/><polygon class="cls-1" points="20.5 35.11 6.36 35.11 6.36 32.05 23.8 32.05 20.5 35.11"/><path class="cls-1" d="M22.11,17.17a7.84,7.84,0,0,0-.82-1.93A8,8,0,0,0,20,13.58a8.21,8.21,0,0,0-1.71-1.28,5.33,5.33,0,0,0,1.07-1.69,5.27,5.27,0,0,0,.38-2,5.11,5.11,0,0,0-.42-2.07,5.32,5.32,0,0,0-9.8,0A5,5,0,0,0,9.1,8.64a5.34,5.34,0,0,0,1.45,3.66,8.14,8.14,0,0,0-3,2.94,8.43,8.43,0,0,0-.82,1.93,8,8,0,0,0-.29,2.11H9.11a5.1,5.1,0,0,1,.41-2.07,5.42,5.42,0,0,1,1.14-1.69,5.32,5.32,0,0,1,9.08,3.76H22.4A7.84,7.84,0,0,0,22.11,17.17ZM16.88,9.68a2.72,2.72,0,0,1-1.42,1.41,2.66,2.66,0,0,1-2.07,0A2.72,2.72,0,0,1,12,9.68,2.77,2.77,0,0,1,12,7.6a2.74,2.74,0,0,1,1.42-1.42,2.67,2.67,0,0,1,3.49,3.5Z"/></g></g></svg>