<svg xmlns="http://www.w3.org/2000/svg" viewBox="0 0 46.53 48"><defs><style>.cls-1{fill:#3176bb;}</style></defs><title>Services Catalog icon</title><g id="Layer_2" data-name="Layer 2"><g id="Layer_1-2" data-name="Layer 1"><path class="cls-1" d="M3,42a3.13,3.13,0,0,0,.23,1.17,3.09,3.09,0,0,0,1.6,1.6A3.13,3.13,0,0,0,6,45H26.49v3H6a5.68,5.68,0,0,1-2.33-.47A6,6,0,0,1,0,42V6A5.13,5.13,0,0,1,.51,3.76,6.61,6.61,0,0,1,3.75.51,5.15,5.15,0,0,1,6,0H39V21H36V3H6a2.43,2.43,0,0,0-1.08.27A3.76,3.76,0,0,0,3.27,4.92,2.43,2.43,0,0,0,3,6V36.84a6.33,6.33,0,0,1,1.44-.62A5.5,5.5,0,0,1,6,36H21.63v3H6a2.64,2.64,0,0,0-1.17.24,3,3,0,0,0-1,.64A2.91,2.91,0,0,0,3,42Z"/><path class="cls-1" d="M26.45,38.49l2.85-1.12a7.08,7.08,0,0,1,0-2.79l-2.82-1.2,1.15-2.71,2.82,1.23a6.87,6.87,0,0,1,.89-1,5.82,5.82,0,0,1,1.1-.88l-1.15-2.85L34.06,26l1.13,2.85a7.27,7.27,0,0,1,2.79,0l1.2-2.82,2.71,1.16-1.23,2.81a7.49,7.49,0,0,1,1.94,2l2.85-1.15,1.08,2.74-2.84,1.13a7.43,7.43,0,0,1,0,2.78l2.81,1.2L45.3,41.47l-2.82-1.22a7.42,7.42,0,0,1-2,1.93L41.65,45l-2.74,1.08-1.13-2.84a7.23,7.23,0,0,1-2.78,0l-1.21,2.82-2.7-1.16,1.23-2.82a7.46,7.46,0,0,1-1.06-.89,6.5,6.5,0,0,1-.87-1.09l-2.85,1.15ZM34.88,32a4.21,4.21,0,0,0-1.47,1,4.38,4.38,0,0,0,3,7.49,3.86,3.86,0,0,0,1.67-.32,4,4,0,0,0,1.45-.92,4.33,4.33,0,0,0,.14-6.14,4.46,4.46,0,0,0-1.48-1,4.07,4.07,0,0,0-3.33,0Z"/><path class="cls-1" d="M27.27,15.49l-.89,3.14a4.93,4.93,0,0,1,1.13,1.15L30.67,19l.74,2.88-3.13.81a5.76,5.76,0,0,1-.15.81,5,5,0,0,1-.3.76l2.26,2.32L28,28.64l-2.28-2.32a4.65,4.65,0,0,1-1.56.39l-.88,3.14-2.88-.8.88-3.15a4.3,4.3,0,0,1-.61-.52,6.1,6.1,0,0,1-.52-.62l-3.16.79-.74-2.87,3.14-.81a3.62,3.62,0,0,1,.15-.81,4.49,4.49,0,0,1,.29-.77L17.52,18l2.14-2.07,2.28,2.32A6.81,6.81,0,0,1,22.7,18a5.32,5.32,0,0,1,.8-.12l.89-3.15ZM26,22.88a2.23,2.23,0,1,0-2.74,1.56,2.21,2.21,0,0,0,1.69-.21A2.16,2.16,0,0,0,26,22.88Z"/></g></g></svg>