<?xml version="1.0" encoding="UTF-8" standalone="no"?>
<svg
   xmlns:dc="http://purl.org/dc/elements/1.1/"
   xmlns:cc="http://creativecommons.org/ns#"
   xmlns:rdf="http://www.w3.org/1999/02/22-rdf-syntax-ns#"
   xmlns:svg="http://www.w3.org/2000/svg"
   xmlns="http://www.w3.org/2000/svg"
   xmlns:sodipodi="http://sodipodi.sourceforge.net/DTD/sodipodi-0.dtd"
   xmlns:inkscape="http://www.inkscape.org/namespaces/inkscape"
   viewBox="0 0 38.371593 51.347136"
   version="1.1"
   id="svg6175"
   sodipodi:docname="Support icon.svg"
   width="38.371593"
   height="51.347137"
   inkscape:version="0.92.1 r15371">
  <metadata
     id="metadata6179">
    <rdf:RDF>
      <cc:Work
         rdf:about="">
        <dc:format>image/svg+xml</dc:format>
        <dc:type
           rdf:resource="http://purl.org/dc/dcmitype/StillImage" />
      </cc:Work>
    </rdf:RDF>
  </metadata>
  <sodipodi:namedview
     pagecolor="#ffffff"
     bordercolor="#666666"
     borderopacity="1"
     objecttolerance="10"
     gridtolerance="10"
     guidetolerance="10"
     inkscape:pageopacity="0"
     inkscape:pageshadow="2"
     inkscape:window-width="3000"
     inkscape:window-height="1875"
     id="namedview6177"
     showgrid="false"
     inkscape:zoom="3.8606248"
     inkscape:cx="-29.22396"
     inkscape:cy="30.565057"
     inkscape:window-x="-13"
     inkscape:window-y="-13"
     inkscape:window-maximized="1"
     inkscape:current-layer="svg6175" />
  <defs
     id="defs6161">
    <style
       id="style6159">.cls-1{fill:#3176bb;}.cls-2{fill:#36c;stroke:#36c;stroke-miterlimit:10;stroke-width:2px;}</style>
  </defs>
  <title
     id="title6163">Support icon</title>
  <g
     id="Layer_2"
     data-name="Layer 2"
     transform="matrix(0.84,0,0,0.84,1.2662476e-4,-0.00211036)">
    <g
       id="Layer_1-2"
       data-name="Layer 1">
      <path
         class="cls-1"
         d="m 19,61.13 a 3.49,3.49 0 0 1 -1.39,-0.28 3.64,3.64 0 0 1 -1.91,-1.91 3.54,3.54 0 0 1 -0.28,-1.4 v -0.27 h -0.27 a 11.08,11.08 0 0 1 -4.4,-0.88 11.38,11.38 0 0 1 -6,-6 A 11,11 0 0 1 3.85,46 V 41.57 L 3.67,41.51 A 5.34,5.34 0 0 1 2.16,40.71 5.9,5.9 0 0 1 1,39.52 6.35,6.35 0 0 1 0.27,38 5.32,5.32 0 0 1 0,36.34 V 22.85 a 22.27,22.27 0 0 1 0.82,-6.07 23.6,23.6 0 0 1 2.3,-5.46 23,23 0 0 1 8.2,-8.2 23.35,23.35 0 0 1 5.45,-2.3 22.87,22.87 0 0 1 12.12,0 23.49,23.49 0 0 1 5.47,2.3 22.91,22.91 0 0 1 8.19,8.2 23.21,23.21 0 0 1 2.31,5.46 22.27,22.27 0 0 1 0.82,6.07 v 13.49 a 5.3,5.3 0 0 1 -0.43,2.15 5.45,5.45 0 0 1 -2.93,2.94 5.65,5.65 0 0 1 -2.15,0.43 H 34.68 V 23.13 h 5.51 a 4.19,4.19 0 0 1 0.93,0.09 9.41,9.41 0 0 1 0.91,0.25 l 0.35,0.12 V 23.22 A 20.07,20.07 0 0 0 36.78,9.16 19.52,19.52 0 0 0 17.65,4 19.93,19.93 0 0 0 13,6 19.7,19.7 0 0 0 6,13 20.43,20.43 0 0 0 4,17.67 19.46,19.46 0 0 0 3.3,22.87 v 0.74 l 0.36,-0.12 a 7.49,7.49 0 0 1 0.9,-0.24 4.29,4.29 0 0 1 0.94,-0.1 H 11 V 41.86 H 7.16 V 46 a 7.67,7.67 0 0 0 0.62,3.1 8,8 0 0 0 4.22,4.23 7.71,7.71 0 0 0 3.1,0.63 h 0.28 v -0.27 a 3.36,3.36 0 0 1 0.27,-1.4 3.64,3.64 0 0 1 1.91,-1.91 A 3.72,3.72 0 0 1 19,50.1 h 7.7 a 3.67,3.67 0 0 1 1.39,0.28 3.88,3.88 0 0 1 1.14,0.77 3.64,3.64 0 0 1 0.77,1.14 3.37,3.37 0 0 1 0.28,1.4 v 3.85 a 3.54,3.54 0 0 1 -0.28,1.4 3.64,3.64 0 0 1 -0.77,1.14 3.7,3.7 0 0 1 -1.14,0.77 3.49,3.49 0 0 1 -1.39,0.28 z M 18.73,57.81 H 27 V 53.42 H 18.72 Z M 38,38.54 h 2.19 a 2.23,2.23 0 0 0 2.2,-2.2 v -7.7 a 2.23,2.23 0 0 0 -2.2,-2.2 H 38 Z M 5.5,26.44 a 2.23,2.23 0 0 0 -2.2,2.2 v 7.7 a 2.23,2.23 0 0 0 2.2,2.2 h 2.2 v -12.1 z"
         id="path6165"
         inkscape:connector-curvature="0"
         style="fill:#3176bb" />
      <path
         class="cls-1"
         d="M 29,21.56 A 2.23,2.23 0 1 1 31.23,19.33 2.23,2.23 0 0 1 29,21.56 Z"
         id="path6167"
         inkscape:connector-curvature="0"
         style="fill:#3176bb" />
      <path
         class="cls-1"
         d="m 16.47,21.56 a 2.23,2.23 0 1 1 2.23,-2.23 2.23,2.23 0 0 1 -2.23,2.23 z"
         id="path6169"
         inkscape:connector-curvature="0"
         style="fill:#3176bb" />
      <path
         class="cls-2"
         d="M 16,41.7 V 41.15 A 12.54,12.54 0 0 0 28.56,28.63 h 0.53 A 13.08,13.08 0 0 1 16,41.7 Z"
         id="path6171"
         inkscape:connector-curvature="0"
         style="fill:#3366cc;stroke:#3366cc;stroke-width:2px;stroke-miterlimit:10" />
    </g>
  </g>
</svg>
