<?xml version="1.0" encoding="UTF-8" standalone="no"?>
<svg
   xmlns:dc="http://purl.org/dc/elements/1.1/"
   xmlns:cc="http://creativecommons.org/ns#"
   xmlns:rdf="http://www.w3.org/1999/02/22-rdf-syntax-ns#"
   xmlns:svg="http://www.w3.org/2000/svg"
   xmlns="http://www.w3.org/2000/svg"
   xmlns:sodipodi="http://sodipodi.sourceforge.net/DTD/sodipodi-0.dtd"
   xmlns:inkscape="http://www.inkscape.org/namespaces/inkscape"
   id="Update_Center"
   data-name="Update Center"
   viewBox="0 0 230 230"
   version="1.1"
   sodipodi:docname="update-center.svg"
   inkscape:version="0.92.1 r15371">
  <metadata
     id="metadata4505">
    <rdf:RDF>
      <cc:Work
         rdf:about="">
        <dc:format>image/svg+xml</dc:format>
        <dc:type
           rdf:resource="http://purl.org/dc/dcmitype/StillImage" />
      </cc:Work>
    </rdf:RDF>
  </metadata>
  <defs
     id="defs4503" />
  <sodipodi:namedview
     pagecolor="#ffffff"
     bordercolor="#666666"
     borderopacity="1"
     objecttolerance="10"
     gridtolerance="10"
     guidetolerance="10"
     inkscape:pageopacity="0"
     inkscape:pageshadow="2"
     inkscape:window-width="3000"
     inkscape:window-height="1875"
     id="namedview4501"
     showgrid="false"
     inkscape:zoom="1.026087"
     inkscape:cx="153.00847"
     inkscape:cy="115"
     inkscape:window-x="-13"
     inkscape:window-y="-13"
     inkscape:window-maximized="1"
     inkscape:current-layer="Update_Center" />
  <title
     id="title4494">update-center</title>
  <polygon
     points="115 58.5 115 120.16 155.99 161.26 145.88 171.37 100.63 126.22 100.63 58.5 115 58.5"
     id="polygon4496"
     style="fill:#3176bb;fill-opacity:1" />
  <path
     d="M85.69,89.69A113.72,113.72,0,0,1,167,56a113.46,113.46,0,0,1,35.26,5.5,116.58,116.58,0,0,1,31.79,16.06,115,115,0,0,1,24.7,24.26q2.47,3.25,4.72,6.74c1.5,2.24,2.88,4.57,4.16,7V84.75H282v57.5H224.5V127.88h33.35a98.26,98.26,0,0,0-15.61-23.59A99.94,99.94,0,0,0,195.3,74.53a99.24,99.24,0,0,0-79,9.66,99.61,99.61,0,0,0-36.16,36.16A100.29,100.29,0,0,0,70,197.73a101.44,101.44,0,0,0,25.94,44.36,101.94,101.94,0,0,0,20.44,15.83,100.13,100.13,0,0,0,24,10.11,100.46,100.46,0,0,0,59.08-1.8,100.53,100.53,0,0,0,28.41-15.16,103.2,103.2,0,0,0,22.24-23.36,99.07,99.07,0,0,0,13.81-29.87l13.81,3.82a107.68,107.68,0,0,1-15.5,33.69,116.35,116.35,0,0,1-25,26.73,114.51,114.51,0,0,1-32.46,17.52A112.73,112.73,0,0,1,167,286,114.86,114.86,0,0,1,85.69,89.69Z"
     transform="translate(-52 -56)"
     id="path4498"
     style="fill:#3176bb;fill-opacity:1" />
</svg>
