<?xml version="1.0" encoding="UTF-8" standalone="no"?>
<!-- Generator: Adobe Illustrator 21.0.0, SVG Export Plug-In . SVG Version: 6.00 Build 0)  -->

<svg
   xmlns:dc="http://purl.org/dc/elements/1.1/"
   xmlns:cc="http://creativecommons.org/ns#"
   xmlns:rdf="http://www.w3.org/1999/02/22-rdf-syntax-ns#"
   xmlns:svg="http://www.w3.org/2000/svg"
   xmlns="http://www.w3.org/2000/svg"
   xmlns:sodipodi="http://sodipodi.sourceforge.net/DTD/sodipodi-0.dtd"
   xmlns:inkscape="http://www.inkscape.org/namespaces/inkscape"
   version="1.1"
   id="Слой_1"
   x="0px"
   y="0px"
   viewBox="0 0 400 400"
   enable-background="new 0 0 400 400"
   xml:space="preserve"
   sodipodi:docname="YouTube_play_button_square_(2013-2017).svg"
   inkscape:version="0.92.1 r15371"><metadata
     id="metadata4505"><rdf:RDF><cc:Work
         rdf:about=""><dc:format>image/svg+xml</dc:format><dc:type
           rdf:resource="http://purl.org/dc/dcmitype/StillImage" /></cc:Work></rdf:RDF></metadata><defs
     id="defs4503" /><sodipodi:namedview
     pagecolor="#ffffff"
     bordercolor="#666666"
     borderopacity="1"
     objecttolerance="10"
     gridtolerance="10"
     guidetolerance="10"
     inkscape:pageopacity="0"
     inkscape:pageshadow="2"
     inkscape:window-width="3000"
     inkscape:window-height="1875"
     id="namedview4501"
     showgrid="false"
     inkscape:zoom="3.92"
     inkscape:cx="208.03571"
     inkscape:cy="200"
     inkscape:window-x="-13"
     inkscape:window-y="-13"
     inkscape:window-maximized="1"
     inkscape:current-layer="Слой_1" /><g
     id="Background"
     style="fill:#3176bb;fill-opacity:1"><linearGradient
       id="SVGID_1_"
       gradientUnits="userSpaceOnUse"
       x1="9.094947e-13"
       y1="199"
       x2="400"
       y2="199"
       gradientTransform="matrix(6.123234e-17 1 1 -6.123234e-17 1 0)"><stop
         offset="0"
         style="stop-color:#E52D27"
         id="stop4485" /><stop
         offset="1"
         style="stop-color:#BF171D"
         id="stop4487" /></linearGradient><rect
       fill="url(#SVGID_1_)"
       width="400"
       height="400"
       id="rect4490"
       style="fill:#3176bb;fill-opacity:1" /></g><g
     id="Logo"><path
       id="The_Sharpness"
       opacity="0.12"
       enable-background="new    "
       d="M170.6,159.9l63.9,42.7l9-4.6L170.6,159.9z" /><g
       id="Lozenge"><g
         id="g4496"><path
           fill="#FFFFFF"
           d="M332.2,146.1c0,0-2.6-18.6-10.7-26.8c-10.2-10.8-21.8-10.8-27-11.4c-37.8-2.7-94.4-2.7-94.4-2.7H200     c0,0-56.6,0-94.4,2.7c-5.3,0.6-16.8,0.7-27,11.4c-8.1,8.2-10.7,26.8-10.7,26.8s-2.7,21.8-2.7,43.7v20.5c0,21.8,2.7,43.7,2.7,43.7     s2.6,18.6,10.7,26.8c10.3,10.8,23.7,10.4,29.7,11.5c21.6,2.1,91.7,2.7,91.7,2.7s56.7-0.1,94.5-2.8c5.3-0.6,16.8-0.7,27-11.4     c8.1-8.2,10.7-26.8,10.7-26.8s2.7-21.8,2.7-43.7v-20.5C334.9,167.9,332.2,146.1,332.2,146.1z M172.1,235v-75.8l72.9,38L172.1,235     z"
           id="path4494" /></g></g></g></svg>