<svg xmlns="http://www.w3.org/2000/svg" xmlns:xlink="http://www.w3.org/1999/xlink" viewBox="0 0 27.16 22.15"><defs><style>.cls-1,.cls-4{fill:none;}.cls-2{fill:#2e76bb;}.cls-3{clip-path:url(#clip-path);}.cls-4{stroke:#2175bb;stroke-miterlimit:10;stroke-width:2px;}</style><clipPath id="clip-path" transform="translate(0 0)"><rect class="cls-1" width="27.16" height="22.15"/></clipPath></defs><title>Asset 4</title><g id="Layer_2" data-name="Layer 2"><g id="Layer_1-2" data-name="Layer 1"><path class="cls-2" d="M5.07,10.14h5.08V17H5.07Zm6.71-1.63H3.27V18.82h8.51Z" transform="translate(0 0)"/><rect class="cls-2" x="14.89" y="17.18" width="8.67" height="1.64"/><g class="cls-3"><path class="cls-2" d="M1.64,1.64H25.53V5.07H1.64ZM13.26,22.15a7.43,7.43,0,0,1-.25-1.7H1.64V6.87H25.53V12c.29.19.58.4.86.62a6.82,6.82,0,0,1,.77.75V0H0V22.09H13.26Z" transform="translate(0 0)"/></g><rect class="cls-2" x="12.93" y="20.45" width="14.24" height="1.64"/><rect class="cls-2" x="25.53" y="7.85" width="1.64" height="14.24"/><g class="cls-3"><path class="cls-4" d="M22.14,10.67a2.83,2.83,0,1,1-2.83-2.84A2.83,2.83,0,0,1,22.14,10.67Z" transform="translate(0 0)"/></g></g></g></svg>