<svg id="Onboarding" xmlns="http://www.w3.org/2000/svg" viewBox="0 0 269.67 256.23"><title>onboarding</title><path d="M303.08,284.82h0l-36.47-36.47a61.79,61.79,0,0,0,9-16.33,61,61,0,0,0,1.47-36.83A60.45,60.45,0,0,0,271,180.67a62.35,62.35,0,0,0-21.85-21.85,60.66,60.66,0,0,0-61.32,0A62.13,62.13,0,0,0,166,180.67,60.66,60.66,0,0,0,166,242a61.92,61.92,0,0,0,21.85,21.85,60.79,60.79,0,0,0,51.34,4.66,61.73,61.73,0,0,0,16.32-9L292,295.94h0a7.85,7.85,0,1,0,11.1-11.11Zm-66.36-30.3a46.78,46.78,0,0,1-36.47,0,47.27,47.27,0,0,1-24.95-25,46.78,46.78,0,0,1,0-36.47,47.18,47.18,0,0,1,24.95-24.95,46.67,46.67,0,0,1,36.47,0,47.09,47.09,0,0,1,25,24.95,46.67,46.67,0,0,1,0,36.47,47.18,47.18,0,0,1-25,25Z" transform="translate(-35.71 -42)"/><path d="M135.59,199V113.34H64.25V199ZM78.52,127.61h42.8v57.07H78.52Z" transform="translate(-35.71 -42)"/><rect x="114.15" y="71.34" width="42.81" height="14.27"/><path d="M149.86,156.15h18.73a67.54,67.54,0,0,1,24.08-14.05H149.86Z" transform="translate(-35.71 -42)"/><path d="M146.8,227.48a59.71,59.71,0,0,1-2-14.26H50V99.07H249.74v42.32a86.51,86.51,0,0,1,7.52,5.19,59.2,59.2,0,0,1,6.75,6.19V42H35.71V227.49H146.8ZM50,56.27H249.74V84.8H50Z" transform="translate(-35.71 -42)"/></svg>