<svg id="Support" xmlns="http://www.w3.org/2000/svg" viewBox="0 0 184.68 246.96"><defs><style>.cls-1{fill:none;stroke:#000;stroke-miterlimit:10;stroke-width:8px;}</style></defs><title>support</title><path d="M154,293.86a14.21,14.21,0,0,1-5.65-1.12,14.82,14.82,0,0,1-7.71-7.71,14.19,14.19,0,0,1-1.12-5.64v-1.1h-1.1a44.56,44.56,0,0,1-17.75-3.56,46.12,46.12,0,0,1-24.31-24.31,44.49,44.49,0,0,1-3.56-17.75V214.85l-.73-.25A21.1,21.1,0,0,1,86,211.36a22.21,22.21,0,0,1-4.64-4.8,23.31,23.31,0,0,1-3-6.05,21.44,21.44,0,0,1-1.1-6.78v-54.5a90.32,90.32,0,0,1,3.31-24.52,94.22,94.22,0,0,1,9.31-22.07A92.47,92.47,0,0,1,123,59.52,93.77,93.77,0,0,1,145,50.2a92.48,92.48,0,0,1,49,0,93.77,93.77,0,0,1,22.07,9.32,92.34,92.34,0,0,1,33.12,33.12,93.83,93.83,0,0,1,9.32,22.07,90.42,90.42,0,0,1,3.31,24.52v54.5a21.65,21.65,0,0,1-1.74,8.69,22,22,0,0,1-11.83,11.85,22.15,22.15,0,0,1-8.7,1.73H217.36V140.33h22.26a17.38,17.38,0,0,1,3.78.4,32.78,32.78,0,0,1,3.66,1l1.44.48v-1.52a81.31,81.31,0,0,0-22.63-56.78,78.93,78.93,0,0,0-77.3-20.79,80.66,80.66,0,0,0-18.87,7.95,79.27,79.27,0,0,0-28.31,28.32,80.56,80.56,0,0,0-8,18.87,77.74,77.74,0,0,0-2.83,21v3l1.44-.48a32.2,32.2,0,0,1,3.66-1,17.38,17.38,0,0,1,3.78-.4h22.26V216H106.17v16.67a31.41,31.41,0,0,0,2.52,12.53,32.42,32.42,0,0,0,17.18,17.18,31.56,31.56,0,0,0,12.53,2.53h1.1v-1.1a14.07,14.07,0,0,1,1.12-5.65,14.66,14.66,0,0,1,7.71-7.7,14.11,14.11,0,0,1,5.65-1.13h31.14a14.11,14.11,0,0,1,5.65,1.13,15,15,0,0,1,4.59,3.11,15.15,15.15,0,0,1,3.12,4.6,14,14,0,0,1,1.12,5.64v15.58a14.19,14.19,0,0,1-1.12,5.64,15,15,0,0,1-3.12,4.59,14.76,14.76,0,0,1-4.59,3.12,14.21,14.21,0,0,1-5.65,1.12Zm-1.1-13.38h33.33V262.71H152.88Zm77.87-77.86h8.87a9,9,0,0,0,8.88-8.89V162.59a9,9,0,0,0-8.88-8.88h-8.87ZM99.48,153.71a9,9,0,0,0-8.88,8.88v31.14a9,9,0,0,0,8.88,8.89h8.87V153.71Z" transform="translate(-77.21 -46.89)"/><path d="M194.3,134a9,9,0,1,1,9-9A9,9,0,0,1,194.3,134Z" transform="translate(-77.21 -46.89)"/><path d="M143.81,134a9,9,0,1,1,9-9A9,9,0,0,1,143.81,134Z" transform="translate(-77.21 -46.89)"/><path class="cls-1" d="M142,215.36v-2.19a50.68,50.68,0,0,0,50.63-50.61h2.18A52.87,52.87,0,0,1,142,215.36Z" transform="translate(-77.21 -46.89)"/></svg>