<svg id="Registration_Roles" data-name="Registration Roles" xmlns="http://www.w3.org/2000/svg" viewBox="0 0 233.15 248.69"><title>registration_roles</title><polygon points="32.27 131.33 157.79 131.33 141.07 146.87 32.27 146.87 32.27 131.33"/><path d="M68.52,278.74h61.56l-3.88,15.54H53V45.59H188.37L255,112.26v23.56a45.63,45.63,0,0,0-15.55,5.34V123.31H177.32V61.14H68.52ZM261.84,154.4a24.73,24.73,0,0,1,9.53,1.82,23.16,23.16,0,0,1,7.71,5.1,24.18,24.18,0,0,1,5.16,7.65,23.75,23.75,0,0,1,1.88,9.47,24.26,24.26,0,0,1-1.82,9.23,23.52,23.52,0,0,1-5.22,7.89L192,282.87l-45.79,11.41,11.42-45.77,87.07-87.19a22.69,22.69,0,0,1,7.89-5.16A24.93,24.93,0,0,1,261.84,154.4ZM268,184.63a8.38,8.38,0,0,0,2.55-6.19,8.06,8.06,0,0,0-2.49-6.13,8.7,8.7,0,0,0-6.25-2.37,9.82,9.82,0,0,0-3.28.55,7.08,7.08,0,0,0-2.79,1.76l-84,84.27-4.13,16.39L184,268.78Zm-75.17-76.86h35.59L192.86,72.19Z" transform="translate(-52.98 -45.59)"/><polygon points="103.98 178.07 32.27 178.07 32.27 162.53 120.71 162.53 103.98 178.07"/><polygon points="32.27 193.73 83.08 193.73 78.9 209.27 32.27 209.27 32.27 193.73"/><path d="M165.15,148.11a41.52,41.52,0,0,0-4.16-9.8,40.49,40.49,0,0,0-6.53-8.38,41.48,41.48,0,0,0-8.7-6.54,26.88,26.88,0,0,0,5.43-8.53,26.59,26.59,0,0,0,1.95-10A26.22,26.22,0,0,0,151,94.36,27.16,27.16,0,0,0,136.64,80a27.11,27.11,0,0,0-21,0,27.19,27.19,0,0,0-14.38,14.38,26.22,26.22,0,0,0-2.11,10.49,26.59,26.59,0,0,0,1.95,10,26.88,26.88,0,0,0,5.43,8.53,41.48,41.48,0,0,0-8.7,6.54,40.49,40.49,0,0,0-6.53,8.38,41.52,41.52,0,0,0-4.16,9.8,38.86,38.86,0,0,0-1.48,10.69H99.18a26.17,26.17,0,0,1,2.11-10.48,27,27,0,0,1,5.8-8.59,27.37,27.37,0,0,1,8.58-5.8,27.23,27.23,0,0,1,21,0A27.23,27.23,0,0,1,151,148.32a26.17,26.17,0,0,1,2.11,10.48h13.49A38.86,38.86,0,0,0,165.15,148.11Zm-26.56-38a13.62,13.62,0,0,1-7.16,7.16,13.63,13.63,0,0,1-10.54,0,13.62,13.62,0,0,1-7.16-7.16,13.63,13.63,0,0,1,0-10.54,13.6,13.6,0,0,1,2.89-4.27,13.8,13.8,0,0,1,4.27-2.9,13.75,13.75,0,0,1,10.54,0,13.69,13.69,0,0,1,7.16,7.17,13.63,13.63,0,0,1,0,10.54Z" transform="translate(-52.98 -45.59)"/></svg>