<svg id="Services" xmlns="http://www.w3.org/2000/svg" viewBox="0 0 220.93 227.94"><title>service_catalog</title><path d="M74.33,255.51a13.8,13.8,0,0,0,1.11,5.56A14.58,14.58,0,0,0,83,268.64a13.85,13.85,0,0,0,5.57,1.11h97.29V284H88.58a27.66,27.66,0,0,1-11.08-2.23,28.79,28.79,0,0,1-15.19-15.19,27.79,27.79,0,0,1-2.23-11.07V84.56a25,25,0,0,1,2.4-10.63A31.51,31.51,0,0,1,77.89,58.46a24.93,24.93,0,0,1,10.69-2.4h156.7v99.73H231V70.31H88.58a11.24,11.24,0,0,0-5.12,1.28,17.35,17.35,0,0,0-7.85,7.85,11.24,11.24,0,0,0-1.28,5.12V231a29.94,29.94,0,0,1,6.85-2.94,26,26,0,0,1,7.4-1.06h74.23v14.24H88.58A13.69,13.69,0,0,0,83,242.38a14.2,14.2,0,0,0-4.5,3.06,14.39,14.39,0,0,0-3.07,4.5A13.85,13.85,0,0,0,74.33,255.51Z" transform="translate(-60.08 -56.06)"/><path d="M185.7,238.85l13.52-5.35a33.77,33.77,0,0,1,.18-13.22L186,214.56l5.49-12.84,13.37,5.82a36.79,36.79,0,0,1,4.24-5,30.24,30.24,0,0,1,5.2-4.16l-5.46-13.52,13-5.15,5.36,13.52a34,34,0,0,1,6.62-.56,33,33,0,0,1,6.6.74L246.13,180,259,185.49l-5.82,13.37a35.61,35.61,0,0,1,9.2,9.44l13.52-5.46,5.14,13-13.51,5.36a34,34,0,0,1-.18,13.22l13.37,5.71L275.2,253l-13.37-5.82a35.92,35.92,0,0,1-9.44,9.2l5.46,13.52-13,5.14-5.35-13.51a34.15,34.15,0,0,1-13.22-.18l-5.72,13.37-12.84-5.49,5.82-13.37a37.28,37.28,0,0,1-5-4.24,30.33,30.33,0,0,1-4.16-5.2l-13.52,5.46Zm40-30.81a19.5,19.5,0,0,0-6.95,4.52,20.94,20.94,0,0,0-6.16,14.4,21,21,0,0,0,20.49,21.2,19.15,19.15,0,0,0,7.93-1.53,19.58,19.58,0,0,0,6.9-4.35,20.65,20.65,0,0,0-6.39-34A19.38,19.38,0,0,0,225.7,208Z" transform="translate(-60.08 -56.06)"/><path d="M189.56,129.62l-4.2,14.93a22.94,22.94,0,0,1,5.38,5.43l15-3.74,3.52,13.66-14.9,3.86a19.69,19.69,0,0,1-.72,3.83,21.29,21.29,0,0,1-1.38,3.65l10.7,11-10.13,9.83-10.83-11a23,23,0,0,1-7.42,1.83l-4.2,14.93L156.71,194l4.2-14.93a21.11,21.11,0,0,1-2.93-2.49,31.28,31.28,0,0,1-2.45-2.94l-15,3.74L137,163.75l14.9-3.85a21.37,21.37,0,0,1,.73-3.83,20.43,20.43,0,0,1,1.37-3.65l-10.7-11.06,10.13-9.82,10.83,11a30.24,30.24,0,0,1,3.62-1.22,20.94,20.94,0,0,1,3.8-.6l4.2-14.93Zm-6.18,35.09a10.6,10.6,0,1,0-5,6.41A10.25,10.25,0,0,0,183.38,164.71Z" transform="translate(-60.08 -56.06)"/></svg>