<svg xmlns="http://www.w3.org/2000/svg" viewBox="0 0 45.68 61.13"><defs><style>.cls-1{fill:#3176bb;}.cls-2{fill:#36c;stroke:#36c;stroke-miterlimit:10;stroke-width:2px;}</style></defs><title>Support icon</title><g id="Layer_2" data-name="Layer 2"><g id="Layer_1-2" data-name="Layer 1"><path class="cls-1" d="M19,61.13a3.49,3.49,0,0,1-1.39-.28,3.64,3.64,0,0,1-1.91-1.91,3.54,3.54,0,0,1-.28-1.4v-.27h-.27a11.08,11.08,0,0,1-4.4-.88,11.38,11.38,0,0,1-6-6A11,11,0,0,1,3.85,46V41.57l-.18-.06a5.34,5.34,0,0,1-1.51-.8A5.9,5.9,0,0,1,1,39.52,6.35,6.35,0,0,1,.27,38,5.32,5.32,0,0,1,0,36.34V22.85a22.27,22.27,0,0,1,.82-6.07,23.6,23.6,0,0,1,2.3-5.46,23,23,0,0,1,8.2-8.2A23.35,23.35,0,0,1,16.77.82a22.87,22.87,0,0,1,12.12,0,23.49,23.49,0,0,1,5.47,2.3,22.91,22.91,0,0,1,8.19,8.2,23.21,23.21,0,0,1,2.31,5.46,22.27,22.27,0,0,1,.82,6.07V36.34a5.3,5.3,0,0,1-.43,2.15,5.45,5.45,0,0,1-2.93,2.94,5.65,5.65,0,0,1-2.15.43H34.68V23.13h5.51a4.19,4.19,0,0,1,.93.09,9.41,9.41,0,0,1,.91.25l.35.12v-.37a20.07,20.07,0,0,0-5.6-14.06A19.52,19.52,0,0,0,17.65,4,19.93,19.93,0,0,0,13,6a19.7,19.7,0,0,0-7,7,20.43,20.43,0,0,0-2,4.67,19.46,19.46,0,0,0-.7,5.2v.74l.36-.12a7.49,7.49,0,0,1,.9-.24,4.29,4.29,0,0,1,.94-.1H11V41.86H7.16V46a7.67,7.67,0,0,0,.62,3.1A8,8,0,0,0,12,53.33a7.71,7.71,0,0,0,3.1.63h.28v-.27a3.36,3.36,0,0,1,.27-1.4,3.64,3.64,0,0,1,1.91-1.91A3.72,3.72,0,0,1,19,50.1H26.7a3.67,3.67,0,0,1,1.39.28,3.88,3.88,0,0,1,1.14.77A3.64,3.64,0,0,1,30,52.29a3.37,3.37,0,0,1,.28,1.4v3.85a3.54,3.54,0,0,1-.28,1.4,3.64,3.64,0,0,1-.77,1.14,3.7,3.7,0,0,1-1.14.77,3.49,3.49,0,0,1-1.39.28Zm-.27-3.32H27V53.42H18.72ZM38,38.54h2.19a2.23,2.23,0,0,0,2.2-2.2v-7.7a2.23,2.23,0,0,0-2.2-2.2H38ZM5.5,26.44a2.23,2.23,0,0,0-2.2,2.2v7.7a2.23,2.23,0,0,0,2.2,2.2H7.7V26.44Z"/><path class="cls-1" d="M29,21.56a2.23,2.23,0,1,1,2.23-2.23A2.23,2.23,0,0,1,29,21.56Z"/><path class="cls-1" d="M16.47,21.56a2.23,2.23,0,1,1,2.23-2.23A2.23,2.23,0,0,1,16.47,21.56Z"/><path class="cls-2" d="M16,41.7v-.55A12.54,12.54,0,0,0,28.56,28.63h.53A13.08,13.08,0,0,1,16,41.7Z"/></g></g></svg>