<?xml version="1.0" encoding="UTF-8" standalone="no"?>
<svg
   xmlns:dc="http://purl.org/dc/elements/1.1/"
   xmlns:cc="http://creativecommons.org/ns#"
   xmlns:rdf="http://www.w3.org/1999/02/22-rdf-syntax-ns#"
   xmlns:svg="http://www.w3.org/2000/svg"
   xmlns="http://www.w3.org/2000/svg"
   xmlns:sodipodi="http://sodipodi.sourceforge.net/DTD/sodipodi-0.dtd"
   xmlns:inkscape="http://www.inkscape.org/namespaces/inkscape"
   id="Layer_1"
   enable-background="new 0 0 39 39"
   viewBox="0 0 56.011494 57.012199"
   x="0px"
   y="0px"
   width="56.011494"
   height="57.012199"
   xml:space="preserve"
   version="1.1"
   sodipodi:docname="lightbulb.svg"
   inkscape:version="0.92.1 r15371"><metadata
     id="metadata4510"><rdf:RDF><cc:Work
         rdf:about=""><dc:format>image/svg+xml</dc:format><dc:type
           rdf:resource="http://purl.org/dc/dcmitype/StillImage" /></cc:Work></rdf:RDF></metadata><defs
     id="defs4508" /><sodipodi:namedview
     pagecolor="#ffffff"
     bordercolor="#666666"
     borderopacity="1"
     objecttolerance="10"
     gridtolerance="10"
     guidetolerance="10"
     inkscape:pageopacity="0"
     inkscape:pageshadow="2"
     inkscape:window-width="3000"
     inkscape:window-height="1875"
     id="namedview4506"
     showgrid="false"
     inkscape:zoom="6.0512821"
     inkscape:cx="24.944915"
     inkscape:cy="38.512201"
     inkscape:window-x="-13"
     inkscape:window-y="-13"
     inkscape:window-maximized="1"
     inkscape:current-layer="Layer_1" /><g
     id="g4497"
     style="fill:#3176bb;fill-opacity:1"
     transform="matrix(1.5203163,0,0,1.5203163,-1.5203163,-1.5203163)"><path
       class="uv-bubble-background"
       style="fill:#3176bb;fill-opacity:1"
       d="M 31.425,34.514 C 30.993,33.57 30.846,32.507 30.834,31.515 35.098,28.382 37.842,23.546 37.842,18.106 37.842,8.658 29.594,1 19.421,1 9.248,1 1,8.658 1,18.105 c 0,9.446 7.932,16.79 18.105,16.79 1.845,0 3.94,0.057 5.62,-0.412 0.979,1.023 2.243,2.3 2.915,2.791 3.785,2.759 7.571,0 7.571,0 0,0 -2.524,0 -3.786,-2.76 z"
       id="path4495"
       inkscape:connector-curvature="0" /></g><g
     id="g4503"
     transform="matrix(1.5203163,0,0,1.5203163,-1.5203163,-1.5203163)"><g
       id="g4501"><path
         class="uv-bubble-foreground"
         style="fill:#ffffff"
         d="M 24.951,9.07 C 24.121,8.234 23.094,7.617 21.975,7.284 21.337,7.096 20.672,7 20,7 18.13,7 16.372,7.736 15.048,9.07 13.728,10.403 13,11.864 13,13.751 l 0.03,0.648 c 0.086,0.972 0.368,1.896 0.834,2.752 0.776,1.399 2.367,2.849 2.637,4.993 l 0.163,0.972 C 16.809,23.703 17.105,24 17.549,24 h 5.054 c 0.445,0 0.742,-0.297 0.884,-0.884 l 0.014,-0.972 c 0.268,-2.144 1.802,-3.593 2.657,-4.993 0.443,-0.855 0.725,-1.779 0.811,-2.752 L 27,13.751 C 26.999,11.864 26.271,10.405 24.951,9.07 Z m -7.85,17.484 h 5.741 v -1.66 h -5.741 z m 1.291,2.114 h 3.216 l 0.414,-0.83 h -4.101 z"
         id="path4499"
         inkscape:connector-curvature="0" /></g></g></svg>